<svg viewBox="0 0 893 546" fill="none" xmlns="http://www.w3.org/2000/svg" preserveAspectRatio="xMidYMid slice">
    <path d="M99.062 127.6C83.8525 75.875 26.6834 70.2949 0 73.9704V516.583C0 533.144 13.4198 546.573 29.9808 546.583L783.99 546C783.99 546 786.992 506.467 686.429 466.872C612.863 437.906 526.329 504.462 490.307 413.242C454.284 322.022 318.199 401.714 278.674 247.341C253.744 149.968 118.074 212.256 99.062 127.6Z" fill="url(#paint0_linear)"/>
    <path opacity="0.5" d="M104.495 71.1676C88.4515 12.2649 28.1469 5.91039 0 10.096V515.515C0 532.076 13.4189 545.504 29.9793 545.515L826.99 546.065C826.99 546.065 830.156 499.834 724.078 454.743C646.477 421.758 555.197 497.551 517.199 393.672C479.2 289.793 335.651 380.544 293.959 204.749C267.661 93.8643 124.55 164.796 104.495 71.1676Z" fill="url(#paint1_linear)"/>
    <path d="M3 26.9529C229.414 80.5364 205.578 200.456 247.998 253.676C301.023 320.202 615.667 411.042 494.305 270.382C372.943 129.723 383.718 -76.4871 486.082 53.8327C588.446 184.153 659.051 380.998 746.386 320.13C833.722 259.262 814.723 354.076 891 346.467" stroke="#18ADD8" stroke-opacity="0.5" stroke-width="24.7785"/>
    <path d="M3 53.8321C209.591 113.301 173.366 200.357 215.786 253.676C268.811 320.325 611.171 433.461 489.809 292.541C368.447 151.62 379.222 -54.9711 481.586 75.5901C583.95 206.151 654.555 403.361 741.89 342.381C829.226 281.4 810.227 376.389 886.504 368.767" stroke="#18ADD8" stroke-opacity="0.5" stroke-width="6.19463"/>
    <defs>
        <linearGradient id="paint0_linear" x1="460.788" y1="355.749" x2="-0.200066" y2="546.623" gradientUnits="userSpaceOnUse">
            <stop offset="0.066255" stop-color="#17A18A"/>
            <stop offset="1" stop-color="#014565"/>
        </linearGradient>
        <linearGradient id="paint1_linear" x1="486.061" y1="330.976" x2="-8.69519" y2="520.852" gradientUnits="userSpaceOnUse">
            <stop offset="0.066255" stop-color="#17A18A"/>
            <stop offset="1" stop-color="#014565"/>
        </linearGradient>
    </defs>
</svg>
